<?xml version="1.0" encoding="UTF-8" standalone="no"?><svg xmlns="http://www.w3.org/2000/svg" xmlns:xlink="http://www.w3.org/1999/xlink" data-name="Layer 1" fill="#e1e3e5" height="134.2" preserveAspectRatio="xMidYMid meet" version="1" viewBox="0.0 0.0 410.3 134.2" width="410.3" zoomAndPan="magnify"><g id="change1_1"><path d="M154.13,35.4l-51-30.73-51,30.73L0,4.05,2.06.62l50,30.11L103.1,0l51,30.73L205.16,0l51,30.73L307.23,0l51,30.73,50-30.11,2.07,3.43L358.27,35.4l-51-30.73-51,30.73-51-30.73Zm153.1,18.69,51,30.73,52.08-31.35L408.28,50l-50,30.11-51-30.73-51,30.73-51-30.73-51,30.73-51-30.73-51,30.73L2.06,50,0,53.47,52.06,84.82l51-30.73,51,30.73,51-30.73,51,30.73Zm0,49.42,51,30.73,52.08-31.35-2.07-3.43-50,30.11-51-30.73-51,30.73-51-30.73-51,30.73-51-30.73-51,30.73-50-30.11L0,102.89l52.06,31.35,51-30.73,51,30.73,51-30.73,51,30.73Z" fill="inherit"/></g></svg>